<svg width="47" height="47" viewBox="0 0 47 47" fill="none" xmlns="http://www.w3.org/2000/svg">
<path d="M34.9584 32.9533L27.605 37.1988C27.4831 37.2692 27.3382 37.2883 27.2023 37.2519C27.0663 37.2154 26.9504 37.1265 26.8801 37.0046L22.6346 29.6512C22.5642 29.5293 22.5451 29.3844 22.5815 29.2485C22.618 29.1125 22.7069 28.9966 22.8288 28.9262C22.9507 28.8558 23.0955 28.8368 23.2315 28.8732C23.3674 28.9096 23.4834 28.9986 23.5537 29.1205L27.1558 35.3594L28.5481 30.0761C29.1731 27.7447 29.0928 25.2804 28.3174 22.9947C27.542 20.709 26.1063 18.7045 24.1919 17.2346C22.2775 15.7646 19.9702 14.8953 17.5618 14.7364C15.1534 14.5776 12.752 15.1364 10.6611 16.3421C10.5392 16.4125 10.3943 16.4315 10.2584 16.3951C10.1224 16.3587 10.0065 16.2697 9.93612 16.1479C9.86575 16.026 9.84668 15.8811 9.88311 15.7452C9.91953 15.6092 10.0085 15.4933 10.1304 15.4229C12.4028 14.111 15.0133 13.5023 17.6316 13.6739C20.25 13.8456 22.7587 14.7898 24.8404 16.3872C26.9222 17.9846 28.4835 20.1634 29.3269 22.6481C30.1704 25.1328 30.2581 27.8119 29.579 30.3464L28.1785 35.6422L34.4277 32.0342C34.5496 31.9638 34.6945 31.9447 34.8304 31.9811C34.9664 32.0176 35.0823 32.1065 35.1527 32.2284C35.2231 32.3503 35.2421 32.4951 35.2057 32.6311C35.1693 32.767 35.0803 32.883 34.9584 32.9533Z" fill="#8E1CFF"/>
</svg>
