<svg width="10" height="10" viewBox="0 0 10 10" fill="none" xmlns="http://www.w3.org/2000/svg">
<path d="M-0.000200299 4.93C-0.00025656 4.80635 0.0363693 4.68545 0.105041 4.58262C0.173713 4.47979 0.271345 4.39964 0.385584 4.35231C0.499823 4.30498 0.625534 4.2926 0.746809 4.31674C0.868085 4.34088 0.979475 4.40045 1.06688 4.48792L4.26313 7.68459C4.35986 7.78134 4.47471 7.85809 4.60111 7.91046C4.72751 7.96283 4.86298 7.98978 4.9998 7.98978C5.13662 7.98978 5.27209 7.96283 5.39849 7.91046C5.52489 7.85809 5.63974 7.78134 5.73647 7.68459L8.93272 4.48792C8.99077 4.42986 9.05969 4.38381 9.13555 4.35239C9.2114 4.32097 9.2927 4.3048 9.3748 4.3048C9.54061 4.3048 9.69964 4.37067 9.81688 4.48792C9.93413 4.60517 10 4.76419 10 4.93C10 5.0121 9.98383 5.0934 9.95241 5.16926C9.92099 5.24511 9.87494 5.31403 9.81688 5.37208L6.62022 8.56833C6.19045 8.99808 5.60757 9.23951 4.9998 9.23951C4.39203 9.23951 3.80915 8.99808 3.37938 8.56833L0.182716 5.37208C0.124688 5.31402 0.0786676 5.24509 0.0472822 5.16924C0.0158977 5.09338 -0.000237496 5.01209 -0.000200299 4.93Z" fill="#8E1CFF"/>
<path d="M-5.34331e-05 0.952917C-2.76785e-05 0.829298 0.0366573 0.708463 0.105362 0.605694C0.174066 0.502925 0.271701 0.422838 0.385923 0.375562C0.500145 0.328285 0.625821 0.315943 0.747058 0.340096C0.868295 0.364248 0.979646 0.423811 1.06703 0.51125L4.85245 4.29667C4.8718 4.31607 4.89479 4.33146 4.9201 4.34196C4.94541 4.35247 4.97254 4.35787 4.99995 4.35787C5.02735 4.35787 5.05448 4.35247 5.07979 4.34196C5.1051 4.33146 5.12809 4.31607 5.14745 4.29667L8.93286 0.511251C9.05006 0.394003 9.20903 0.328112 9.3748 0.328073C9.54057 0.328034 9.69957 0.39385 9.81682 0.511042C9.93407 0.628235 9.99996 0.787204 10 0.952978C10 1.11875 9.93422 1.27775 9.81703 1.395L6.0312 5.18083C5.75734 5.45352 5.38662 5.60661 5.00015 5.60661C4.61369 5.60661 4.24297 5.45352 3.96911 5.18083L0.182862 1.395C0.124835 1.33694 0.0788145 1.26801 0.047429 1.19215C0.0160436 1.1163 -9.063e-05 1.03501 -5.34331e-05 0.952917Z" fill="#8E1CFF" fill-opacity="0.6"/>
</svg>
