<svg width="34" height="34" viewBox="0 0 34 34" fill="none" xmlns="http://www.w3.org/2000/svg">
<path d="M22.5074 19.5091L22.5004 13.435C22.4988 12.9067 22.2882 12.4004 21.9146 12.0268C21.541 11.6532 21.0347 11.4426 20.5063 11.441L14.4323 11.4339C14.1681 11.4347 13.915 11.54 13.7281 11.7268C13.5413 11.9136 13.436 12.1668 13.4353 12.4309C13.4347 12.563 13.4603 12.6938 13.5106 12.8158C13.5609 12.9379 13.6348 13.0488 13.7281 13.1421C13.8215 13.2355 13.9324 13.3094 14.0545 13.3597C14.1765 13.41 14.3073 13.4356 14.4393 13.435H19.0921L11.3139 21.2132C11.1264 21.4007 11.021 21.6551 11.021 21.9203C11.021 22.1855 11.1264 22.4399 11.3139 22.6274C11.5015 22.815 11.7558 22.9203 12.021 22.9203C12.2863 22.9203 12.5406 22.815 12.7282 22.6274L20.5063 14.8492L20.5063 19.502C20.5054 19.7674 20.6099 20.0222 20.7969 20.2105C20.9839 20.3988 21.238 20.5052 21.5033 20.5061C21.7687 20.507 22.0236 20.4025 22.2119 20.2155C22.4002 20.0286 22.5065 19.7744 22.5074 19.5091Z" fill="#FBFAFC"/>
</svg>
