<svg width="10" height="10" viewBox="0 0 10 10" fill="none" xmlns="http://www.w3.org/2000/svg">
<g clip-path="url(#clip0_51_226)">
<path d="M5 0C2.24292 0 0 2.24292 0 5C0 7.75708 2.24292 10 5 10C7.75708 10 10 7.75708 10 5C10 2.24292 7.75708 0 5 0ZM5 9.58333C2.47292 9.58333 0.416667 7.52708 0.416667 5C0.416667 2.47292 2.47292 0.416667 5 0.416667C7.52708 0.416667 9.58333 2.47292 9.58333 5C9.58333 7.52708 7.52708 9.58333 5 9.58333ZM6.66667 5.98917C6.66667 6.5925 6.17583 7.08333 5.5725 7.08333H5.20833V7.70833C5.20833 7.82333 5.115 7.91667 5 7.91667C4.885 7.91667 4.79167 7.82333 4.79167 7.70833V7.08333H4.40583C3.99792 7.08333 3.61708 6.86417 3.41333 6.51042C3.35542 6.41083 3.38958 6.28333 3.48958 6.22583C3.58875 6.1675 3.71625 6.20208 3.77417 6.30208C3.90417 6.52708 4.14667 6.66667 4.40625 6.66667H5.57292C5.94625 6.66667 6.25042 6.36292 6.25042 5.98917C6.25042 5.65458 6.01083 5.37333 5.68042 5.32042L4.25458 5.09125C3.72125 5.00542 3.33375 4.55125 3.33375 4.01083C3.33375 3.4075 3.82458 2.91667 4.42792 2.91667H4.79208V2.29167C4.79208 2.17667 4.88542 2.08333 5.00042 2.08333C5.11542 2.08333 5.20875 2.17667 5.20875 2.29167V2.91667H5.59458C6.0025 2.91667 6.38292 3.13625 6.58708 3.48958C6.645 3.58917 6.61083 3.71667 6.51083 3.77417C6.4125 3.83083 6.28375 3.79792 6.22625 3.69792C6.09625 3.47292 5.85375 3.33333 5.59417 3.33333H4.4275C4.05417 3.33333 3.75 3.63708 3.75 4.01083C3.75 4.34542 3.98958 4.62667 4.32 4.67958L5.74583 4.90875C6.27917 4.99458 6.66667 5.44917 6.66667 5.98917Z" fill="#F4F4F4"/>
</g>
<defs>
<clipPath id="clip0_51_226">
<rect width="10" height="10" fill="white"/>
</clipPath>
</defs>
</svg>
