<svg width="24" height="23" viewBox="0 0 24 23" fill="none" xmlns="http://www.w3.org/2000/svg">
<g clip-path="url(#clip0_51_128)">
<path d="M16.8596 7.1794L7.6477 15.6028C7.58577 15.6596 7.51217 15.7048 7.43112 15.7355C7.35007 15.7663 7.26317 15.7822 7.17541 15.7822C7.08765 15.7822 7.00075 15.7663 6.9197 15.7355C6.83866 15.7048 6.76505 15.6596 6.70312 15.6028L3.14076 12.3421C3.07883 12.2852 3.00522 12.2401 2.92418 12.2093C2.84313 12.1785 2.75623 12.1627 2.66847 12.1627C2.58071 12.1627 2.49381 12.1785 2.41276 12.2093C2.33171 12.2401 2.25811 12.2852 2.19618 12.3421C2.134 12.3987 2.08466 12.466 2.05099 12.5401C2.01733 12.6142 2 12.6937 2 12.774C2 12.8542 2.01733 12.9337 2.05099 13.0078C2.08466 13.0819 2.134 13.1492 2.19618 13.2059L5.75987 16.4641C6.1358 16.8073 6.64526 17 7.17641 17C7.70757 17 8.21702 16.8073 8.59296 16.4641L17.8042 8.04258C17.8662 7.98596 17.9155 7.91869 17.9491 7.84463C17.9827 7.77057 18 7.69117 18 7.61099C18 7.53081 17.9827 7.45141 17.9491 7.37735C17.9155 7.30329 17.8662 7.23602 17.8042 7.1794C17.7422 7.12254 17.6686 7.07742 17.5876 7.04663C17.5065 7.01585 17.4196 7 17.3319 7C17.2441 7 17.1572 7.01585 17.0762 7.04663C16.9951 7.07742 16.9215 7.12254 16.8596 7.1794Z" fill="#8E1CFF"/>
</g>
<defs>
<clipPath id="clip0_51_128">
<rect width="16" height="16" fill="white" transform="translate(12) rotate(45)"/>
</clipPath>
</defs>
</svg>
