<svg width="23" height="23" viewBox="0 0 23 23" fill="none" xmlns="http://www.w3.org/2000/svg">
<g clip-path="url(#clip0_159_5)">
<path d="M13.5325 11.5002L22.5788 2.45489C23.1404 1.89334 23.1404 0.982904 22.5788 0.421403C22.0173 -0.140142 21.1068 -0.140142 20.5453 0.421403L11.5 9.46767L2.45464 0.421403C1.8931 -0.140142 0.982659 -0.140142 0.421159 0.421403C-0.140341 0.982949 -0.140386 1.89339 0.421159 2.45489L9.46743 11.5002L0.421159 20.5456C-0.140386 21.1071 -0.140386 22.0176 0.421159 22.5791C0.982704 23.1406 1.89314 23.1406 2.45464 22.5791L11.5 13.5328L20.5453 22.5791C21.1068 23.1406 22.0173 23.1406 22.5788 22.5791C23.1403 22.0175 23.1403 21.1071 22.5788 20.5456L13.5325 11.5002Z" fill="#8E1CFF"/>
</g>
<defs>
<clipPath id="clip0_159_5">
<rect width="23" height="23" fill="white"/>
</clipPath>
</defs>
</svg>
