<svg width="9" height="16" viewBox="0 0 9 16" fill="none" xmlns="http://www.w3.org/2000/svg">
<path d="M1.57703 16C1.36404 16.0001 1.15581 15.9415 0.97868 15.8316C0.801554 15.7217 0.663495 15.5655 0.581975 15.3828C0.500454 15.2 0.479134 14.9988 0.520713 14.8048C0.562291 14.6108 0.664901 14.4326 0.815556 14.2927L6.3217 9.1788C6.48836 9.02404 6.62056 8.84029 6.71076 8.63805C6.80096 8.43582 6.84738 8.21906 6.84738 8.00016C6.84738 7.78126 6.80096 7.5645 6.71076 7.36227C6.62056 7.16003 6.48836 6.97628 6.3217 6.82152L0.815556 1.70762C0.715558 1.61473 0.636235 1.50446 0.582117 1.3831C0.527998 1.26174 0.500144 1.13166 0.500144 1.0003C0.500144 0.735004 0.613601 0.480574 0.815556 0.292981C1.01751 0.105388 1.29142 0 1.57703 0C1.71845 0 1.85848 0.0258735 1.98913 0.0761433C2.11979 0.126413 2.2385 0.200095 2.3385 0.292981L7.84392 5.40755C8.58415 6.09516 9 7.02775 9 8.00016C9 8.97257 8.58415 9.90516 7.84392 10.5928L2.3385 15.7073C2.23848 15.8002 2.11976 15.8738 1.9891 15.924C1.85845 15.9742 1.71843 16.0001 1.57703 16Z" fill="#8E1CFF"/>
</svg>
