<svg width="10" height="10" viewBox="0 0 10 10" fill="none" xmlns="http://www.w3.org/2000/svg">
<g clip-path="url(#clip0_51_214)">
<path d="M7.29167 4.58333C5.79833 4.58333 4.58333 5.79833 4.58333 7.29167C4.58333 8.785 5.79833 10 7.29167 10C8.785 10 10 8.785 10 7.29167C10 5.79833 8.785 4.58333 7.29167 4.58333ZM7.29167 9.58333C6.02833 9.58333 5 8.55542 5 7.29167C5 6.02792 6.02833 5 7.29167 5C8.555 5 9.58333 6.02792 9.58333 7.29167C9.58333 8.55542 8.555 9.58333 7.29167 9.58333ZM7.85583 7.56083C7.93708 7.64208 7.93708 7.77417 7.85583 7.85542C7.815 7.89625 7.76167 7.91625 7.70833 7.91625C7.655 7.91625 7.60167 7.89583 7.56083 7.85542L7.14417 7.43875C7.105 7.39958 7.08333 7.34667 7.08333 7.29125V6.45792C7.08333 6.34292 7.17667 6.24958 7.29167 6.24958C7.40667 6.24958 7.5 6.34292 7.5 6.45792V7.205L7.85583 7.56083ZM8.125 1.66667H7.28C7.17583 0.730417 6.38 0 5.41667 0H4.375C3.41167 0 2.61542 0.730417 2.51167 1.66667H1.875C0.84125 1.66667 0 2.50792 0 3.54167V8.125C0 9.15875 0.84125 10 1.875 10H4.375C4.49 10 4.58333 9.90667 4.58333 9.79167C4.58333 9.67667 4.49 9.58333 4.375 9.58333H1.875C1.07083 9.58333 0.416667 8.92917 0.416667 8.125V5.41667H3.95833C4.07333 5.41667 4.16667 5.32333 4.16667 5.20833C4.16667 5.09333 4.07333 5 3.95833 5H0.416667V3.54167C0.416667 2.7375 1.07083 2.08333 1.875 2.08333H8.125C8.92917 2.08333 9.58333 2.7375 9.58333 3.54167V4.375C9.58333 4.49 9.67667 4.58333 9.79167 4.58333C9.90667 4.58333 10 4.49 10 4.375V3.54167C10 2.50792 9.15875 1.66667 8.125 1.66667ZM4.375 0.416667H5.41667C6.15 0.416667 6.75875 0.960833 6.86 1.66667H2.93167C3.03292 0.960833 3.64167 0.416667 4.375 0.416667Z" fill="#F4F4F4"/>
</g>
<defs>
<clipPath id="clip0_51_214">
<rect width="10" height="10" fill="white"/>
</clipPath>
</defs>
</svg>
