<svg width="20" height="20" viewBox="0 0 20 20" fill="none" xmlns="http://www.w3.org/2000/svg">
<path id="speed-site" d="M19.021 9.54154C18.7231 7.04139 17.5631 4.75872 15.7769 3.15749C13.9907 1.55627 11.7122 0.756657 9.40464 0.921183C7.09705 1.08571 4.93351 2.20203 3.35378 4.04324C1.77404 5.88445 0.896657 8.31238 0.899958 10.8335C0.895588 12.183 1.14642 13.5189 1.63679 14.758C2.12716 15.997 2.84655 17.1126 3.75004 18.035C4.44102 18.7324 5.35149 19.1136 6.29305 19.0997H13.6984C14.6932 19.1022 15.6489 18.6779 16.359 17.9184C17.3709 16.845 18.1387 15.5285 18.6009 14.0741C19.0631 12.6196 19.207 11.0674 19.021 9.54154ZM15.299 16.7331C14.8724 17.1913 14.2973 17.4476 13.6984 17.4464H6.29305C5.73902 17.4588 5.20162 17.2397 4.79106 16.8339C4.03837 16.0653 3.43904 15.1357 3.03047 14.1034C2.6219 13.071 2.41285 11.9579 2.41636 10.8335C2.41711 9.66987 2.64289 8.51944 3.07899 7.45733C3.51508 6.39521 4.15168 5.44528 4.94724 4.6695C6.32956 3.31047 8.12642 2.56112 9.98778 2.56742C10.2852 2.56756 10.5824 2.58577 10.8779 2.62198C12.3 2.80205 13.6462 3.41765 14.7606 4.39748C15.875 5.37731 16.712 6.68128 17.1747 8.15837C17.6373 9.63545 17.7067 11.2252 17.3747 12.7435C17.0427 14.2618 16.3231 15.6465 15.299 16.7372V16.7331ZM6.81925 14.3756C6.96303 14.529 7.045 14.7385 7.04713 14.9578C7.04926 15.1772 6.97138 15.3885 6.83062 15.5452C6.68986 15.702 6.49775 15.7913 6.29655 15.7937C6.09535 15.796 5.90154 15.7111 5.75776 15.5576C4.89717 14.6386 4.30709 13.461 4.06273 12.1749C3.81838 10.8888 3.93081 9.55258 4.38571 8.33644C4.84061 7.12031 5.61736 6.0794 6.61696 5.34639C7.61655 4.61338 8.79372 4.22148 9.99839 4.22065C10.2884 4.22056 10.578 4.24293 10.865 4.2876C10.9636 4.3031 11.0584 4.33962 11.1441 4.39508C11.2297 4.45053 11.3045 4.52384 11.3641 4.61082C11.4237 4.69779 11.4671 4.79672 11.4916 4.90196C11.5162 5.0072 11.5215 5.11668 11.5072 5.22415C11.4942 5.33221 11.4614 5.43634 11.4109 5.5304C11.3604 5.62446 11.2931 5.70656 11.2131 5.77187C11.1331 5.83719 11.0419 5.88439 10.9448 5.91071C10.8478 5.93702 10.747 5.94192 10.6482 5.92512C9.69927 5.77736 8.7318 5.96014 7.88384 6.44738C7.03587 6.93462 6.35073 7.70142 5.9262 8.63835C5.50168 9.57529 5.35945 10.6345 5.51982 11.6648C5.68019 12.695 6.13497 13.6438 6.81925 14.3756ZM16.0026 9.88872C16.0436 10.2017 16.0641 10.5174 16.064 10.8335C16.0665 11.7144 15.9061 12.5868 15.5924 13.3986C15.2787 14.2105 14.8181 14.945 14.2383 15.5584C14.0943 15.7119 13.9003 15.7967 13.6989 15.7943C13.4976 15.7918 13.3054 15.7022 13.1646 15.5452C13.0239 15.3883 12.9461 15.1768 12.9484 14.9572C12.9506 14.7377 13.0328 14.5282 13.1768 14.3747C13.6891 13.8304 14.0759 13.1615 14.3057 12.423C14.5356 11.6844 14.6018 10.897 14.4991 10.1251C14.4703 9.90798 14.5219 9.68728 14.6424 9.51156C14.7629 9.33585 14.9425 9.21952 15.1417 9.18817C15.3408 9.15682 15.5433 9.21301 15.7045 9.34439C15.8656 9.47577 15.9723 9.67157 16.0011 9.88872H16.0026ZM11.4587 10.4103C11.5499 10.768 11.5299 11.1486 11.4018 11.4927C11.2737 11.8367 11.0447 12.1248 10.7506 12.3119C10.4565 12.4991 10.1138 12.5748 9.77602 12.5272C9.43827 12.4796 9.12448 12.3114 8.88366 12.0488C8.64285 11.7863 8.48856 11.4442 8.44491 11.076C8.40125 10.7077 8.47068 10.3341 8.64235 10.0134C8.81402 9.69277 9.07827 9.44312 9.39383 9.30346C9.70938 9.1638 10.0585 9.14201 10.3866 9.24148L13.2534 6.11607C13.3233 6.03712 13.407 5.97414 13.4995 5.93082C13.592 5.8875 13.6915 5.8647 13.7921 5.86374C13.8928 5.86279 13.9926 5.8837 14.0858 5.92527C14.179 5.96683 14.2637 6.02821 14.3349 6.10582C14.406 6.18343 14.4623 6.27573 14.5005 6.37731C14.5386 6.4789 14.5578 6.58775 14.5569 6.69751C14.556 6.80726 14.5351 6.91573 14.4954 7.01658C14.4556 7.11743 14.3979 7.20864 14.3255 7.2849L11.4587 10.4103Z" fill="#8E1CFF"/>
</svg>
