<svg width="10" height="10" viewBox="0 0 10 10" fill="none" xmlns="http://www.w3.org/2000/svg">
<g clip-path="url(#clip0_51_220)">
<path d="M9.99916 4.00114C9.99916 3.31909 9.44887 2.76328 8.7679 2.75162V0.208412C8.7679 0.099251 8.68356 0.00883891 8.57459 0.000505993C8.46687 -0.00699363 8.36917 0.0696692 8.35247 0.17758C8.15123 1.52168 6.37092 1.66667 5.6148 1.66667H2.29594C1.03002 1.66667 0 2.69454 0 3.95822C0 4.6461 0.308129 5.26399 0.794956 5.68439L2.15064 9.31462C2.24625 9.57586 2.43789 9.78459 2.69049 9.90209C2.83078 9.96709 2.98025 10 3.13056 10C3.25122 10 3.3723 9.97875 3.48879 9.93625C4.02948 9.7396 4.3088 9.14046 4.11215 8.60132L3.2579 6.24977H5.63693C6.55839 6.24977 8.13661 6.44351 8.35372 7.7422C8.37084 7.84344 8.4581 7.91636 8.55956 7.91636C8.5654 7.91636 8.57125 7.91636 8.57709 7.91594C8.68523 7.90719 8.76874 7.81678 8.76874 7.70803V5.25024C9.44971 5.23857 10 4.68277 10 4.00072L9.99916 4.00114ZM0.417519 3.95822C0.417519 2.92453 1.26049 2.08332 2.29636 2.08332H3.34015V5.83313H2.31765C1.26968 5.83313 0.417519 4.99192 0.417519 3.95822ZM3.71968 8.74381C3.77688 8.90047 3.76978 9.07046 3.69922 9.22129C3.62866 9.37253 3.50299 9.48753 3.346 9.54461C3.02075 9.66293 2.66127 9.49503 2.54269 9.17004L1.37865 6.0527C1.6659 6.17894 1.98363 6.24977 2.31807 6.24977H2.81366L3.71968 8.74381ZM8.35038 6.77016C7.83725 6.16561 6.89825 5.83313 5.63651 5.83313H3.75767V2.08332H5.61521C6.89157 2.08332 7.83683 1.755 8.35038 1.15711V6.77016ZM8.7679 4.8336V3.16826C9.2184 3.17951 9.58165 3.54866 9.58165 4.00114C9.58165 4.45361 9.21882 4.82235 8.7679 4.83401V4.8336Z" fill="#F4F4F4"/>
</g>
<defs>
<clipPath id="clip0_51_220">
<rect width="10" height="10" fill="white"/>
</clipPath>
</defs>
</svg>
